<svg width="50" height="50" viewBox="0 0 50 50" fill="none" xmlns="http://www.w3.org/2000/svg">
<rect width="50" height="50" rx="3" fill="#EBD96B"/>
<path d="M40.1718 13.7042C30.8451 10.3886 20.7076 10.1148 11.2156 12.922C10.8383 13.0123 10.483 13.1777 10.1711 13.4083C9.85911 13.6389 9.59682 13.93 9.39985 14.2643C9.20288 14.5985 9.07529 14.969 9.02468 15.3536C8.97407 15.7383 9.00148 16.1292 9.10528 16.503C9.6248 18.5879 10.3826 20.9833 11.2927 23.1551C11.3083 23.2059 11.3328 23.1815 11.3328 23.1307C11.2009 22.1122 11.9841 20.8261 13.5202 20.3583C20.9023 18.0089 28.8468 18.1141 36.1641 20.6581C36.434 20.7504 36.7196 20.7878 37.0042 20.7679C37.2887 20.7481 37.5664 20.6715 37.8209 20.5426C38.0754 20.4137 38.3015 20.2352 38.4859 20.0176C38.6702 19.7999 38.8092 19.5475 38.8945 19.2753C39.8046 16.3457 40.1718 14.3565 40.2626 13.8585C40.2782 13.7657 40.1962 13.7306 40.1718 13.7052V13.7042ZM17.6695 20.1493C16.5514 20.3827 15.0055 20.7499 13.8454 21.1347C11.5261 21.9344 11.6335 24.7566 12.8688 25.657C12.9597 25.1336 13.5202 24.4217 14.1452 24.1815C16.4605 23.2713 18.9468 22.7274 21.4604 22.5028C20.1831 21.9843 18.937 21.2411 17.6861 20.1484L17.6695 20.1493ZM36.1328 25.7996C32.8008 24.234 29.1887 23.3523 25.5101 23.2065C21.8315 23.0608 18.1609 23.6539 14.7155 24.951C13.611 25.3679 12.9196 26.7117 13.611 27.987C14.8188 30.1707 16.1895 32.2602 17.7115 34.2378C17.4927 33.48 17.8794 32.0767 19.3638 31.6178C23.4691 30.3561 27.7766 30.8912 30.6398 32.0504C31.4484 32.3756 32.5929 32.1783 33.2345 31.2174C34.3286 29.5319 35.3237 27.7842 36.2148 25.9832C36.2549 25.9021 36.2149 25.8416 36.1328 25.7996ZM29.4807 35.9165C28.2797 35.31 27.1814 34.5189 26.2259 33.5718C25.7835 33.1294 25.1322 32.4937 24.4457 31.7359C22.8783 31.7359 21.3569 31.8931 19.73 32.4127C18.2193 32.8853 18.0777 34.6304 18.7388 35.5405C19.8569 36.934 20.6411 37.6859 21.892 38.9789C22.555 39.6291 23.4452 39.9954 24.3738 40C25.3024 40.0045 26.1962 39.647 26.8655 39.0033C27.842 38.0268 28.4426 37.3754 29.5461 36.1245C29.6115 36.0581 29.5861 35.9419 29.4797 35.9165H29.4807Z" fill="black"/>
</svg>
